<?xml version="1.0" encoding="UTF-8" standalone="no"?>
<!-- Created with Inkscape (http://www.inkscape.org/) -->

<svg
   xmlns:dc="http://purl.org/dc/elements/1.1/"
   xmlns:cc="http://creativecommons.org/ns#"
   xmlns:rdf="http://www.w3.org/1999/02/22-rdf-syntax-ns#"
   xmlns:svg="http://www.w3.org/2000/svg"
   xmlns="http://www.w3.org/2000/svg"
   xmlns:sodipodi="http://sodipodi.sourceforge.net/DTD/sodipodi-0.dtd"
   xmlns:inkscape="http://www.inkscape.org/namespaces/inkscape"
   width="210mm"
   height="297mm"
   viewBox="0 0 210 297"
   version="1.1"
   id="svg8"
   sodipodi:docname="Piggy.svg"
   inkscape:version="0.92.1 r15371">
  <defs
     id="defs2" />
  <sodipodi:namedview
     id="base"
     pagecolor="#ffffff"
     bordercolor="#666666"
     borderopacity="1.0"
     inkscape:pageopacity="0.0"
     inkscape:pageshadow="2"
     inkscape:zoom="5.86"
     inkscape:cx="476.1249"
     inkscape:cy="492.62651"
     inkscape:document-units="mm"
     inkscape:current-layer="layer1"
     showgrid="false"
     inkscape:window-width="2560"
     inkscape:window-height="1361"
     inkscape:window-x="-9"
     inkscape:window-y="-9"
     inkscape:window-maximized="1" />
  <metadata
     id="metadata5">
    <rdf:RDF>
      <cc:Work
         rdf:about="">
        <dc:format>image/svg+xml</dc:format>
        <dc:type
           rdf:resource="http://purl.org/dc/dcmitype/StillImage" />
      </cc:Work>
    </rdf:RDF>
  </metadata>
  <g
     inkscape:label="Layer 1"
     inkscape:groupmode="layer"
     id="layer1">
    <g
       aria-label="piggy"
       style="font-style:normal;font-variant:normal;font-weight:normal;font-stretch:normal;font-size:10.58333302px;line-height:1.25;font-family:'Fauna One';-inkscape-font-specification:'Fauna One';letter-spacing:0px;word-spacing:0px;fill:#483737;fill-opacity:1;stroke:none;stroke-width:0.26458332"
       id="text4487">
      <path
         d="m 94.603863,150.78071 q 1.703917,0 1.703917,-2.52942 0,-1.016 -0.3175,-1.72508 -0.169334,-0.381 -0.508,-0.59267 -0.328084,-0.22225 -0.783167,-0.22225 -0.8255,0 -1.55575,0.97367 v 3.73591 q 0.656167,0.35984 1.4605,0.35984 z m -3.037417,-5.55625 h 1.121834 q 0.328083,0 0.328083,0.3175 v 0.66675 q 0.85725,-1.13242 1.979083,-1.13242 0.560917,0 0.994834,0.28575 0.433916,0.28575 0.677333,0.75142 0.47625,0.93133 0.47625,2.13783 0,1.22767 -0.455083,2.12725 -0.254,0.48683 -0.751417,0.77258 -0.497417,0.27517 -1.259417,0.27517 -0.751416,0 -1.534583,-0.381 v 2.63525 l -0.836083,0.0635 v -7.88458 l -0.740834,-0.0847 z"
         style="font-style:normal;font-variant:normal;font-weight:normal;font-stretch:normal;line-height:13.22916603px;font-family:'Fauna One';-inkscape-font-specification:'Fauna One';fill:#483737;stroke-width:0.26458332"
         id="path4489"
         inkscape:connector-curvature="0" />
      <path
         d="m 99.224949,145.55254 v 4.58258 q 0,0.58209 0.465667,0.58209 0.179922,0 0.433924,-0.0635 l 0.10583,0.635 q -0.433924,0.13758 -0.889004,0.13758 -0.941916,0 -0.941916,-1.19592 v -4.37091 l -0.635,-0.0847 v -0.55033 h 1.142999 q 0.3175,0 0.3175,0.32808 z m -0.402166,-1.31233 q -0.211667,0 -0.381,-0.15875 -0.15875,-0.15875 -0.15875,-0.37042 0,-0.22225 0.15875,-0.381 0.169333,-0.16933 0.381,-0.16933 0.22225,0 0.381,0.16933 0.15875,0.15875 0.15875,0.381 0,0.21167 -0.15875,0.37042 -0.15875,0.15875 -0.381,0.15875 z"
         style="font-style:normal;font-variant:normal;font-weight:normal;font-stretch:normal;line-height:13.22916603px;font-family:'Fauna One';-inkscape-font-specification:'Fauna One';fill:#483737;stroke-width:0.26458332"
         id="path4491"
         inkscape:connector-curvature="0" />
      <path
         d="m 103.70715,145.07629 q 0.46567,0 0.87842,0.14817 h 1.67216 v 0.58208 h -0.8255 q 0.48684,0.59267 0.48684,1.54517 0,0.9525 -0.5715,1.51341 -0.56092,0.55034 -1.64042,0.55034 -0.62442,0 -1.11125,-0.24342 l -0.56092,0.5715 q -0.24341,0.24342 -0.24341,0.49742 0,0.34925 0.4445,0.34925 h 2.30716 q 0.77259,0 1.28059,0.40216 0.508,0.39159 0.508,1.0795 0,0.83609 -0.68792,1.29117 -0.67733,0.46567 -1.92617,0.46567 -1.23825,0 -1.9685,-0.381 -0.71966,-0.37042 -0.71966,-1.18534 0,-0.29633 0.14816,-0.62441 0.14817,-0.32809 0.39159,-0.51859 -0.53975,-0.20108 -0.53975,-0.71966 0,-0.51859 0.5715,-1.0795 l 0.508,-0.48684 q -0.61384,-0.59266 -0.61384,-1.60866 0,-1.02659 0.56092,-1.5875 0.5715,-0.56092 1.651,-0.56092 z m 1.42875,2.20133 q 0,-0.74083 -0.39158,-1.16416 -0.381,-0.43392 -1.05834,-0.43392 -0.66675,0 -1.03716,0.40217 -0.37042,0.40216 -0.37042,1.15358 0,0.74083 0.39158,1.17475 0.40217,0.43392 1.06892,0.43392 0.66675,0 1.02658,-0.41275 0.37042,-0.41275 0.37042,-1.15359 z m -0.64558,3.94759 h -2.29659 q -0.381,0.45508 -0.381,0.9525 0,0.508 0.51859,0.77258 0.51858,0.27517 1.34408,0.27517 1.88383,0 1.88383,-1.16417 0,-0.41275 -0.28575,-0.62442 -0.28575,-0.21166 -0.78316,-0.21166 z"
         style="font-style:normal;font-variant:normal;font-weight:normal;font-stretch:normal;line-height:13.22916603px;font-family:'Fauna One';-inkscape-font-specification:'Fauna One';fill:#483737;stroke-width:0.26458332"
         id="path4493"
         inkscape:connector-curvature="0" />
      <path
         d="m 109.54301,145.07629 c 0.31044,0 0.63778,0.0379 0.99355,0.15968 0,0 0.23766,-0.14488 0.4082,-0.32354 0.36977,-0.37346 0.48181,-0.70873 0.0141,-0.82112 -0.17271,0 -0.37549,0.0345 -0.42474,0.25879 0.0143,0.21 0.24677,0.22711 0.45803,0.23595 0.5019,-0.0893 0.83095,-0.22237 1.11903,-0.3803 0.26215,-0.14834 0.36138,-0.2073 0.54816,-0.36572 0.23913,-0.18762 0.56937,-0.51089 0.56937,-0.51089 0,0 -0.11758,0.29261 -0.37085,0.66107 -0.14219,0.14424 -0.17037,0.18533 -0.40065,0.35804 -0.2418,0.1612 -0.32821,0.24749 -0.71969,0.40869 -0.41451,0.12666 -0.65966,0.27229 -1.17173,0.15253 -0.20047,-0.0562 -0.29462,-0.12083 -0.43279,-0.30506 -0.0738,-0.18143 -0.0739,-0.33429 0.0496,-0.54633 0.13817,-0.19574 0.2455,-0.36467 0.68304,-0.42224 0.29937,-0.023 0.64961,0.006 0.84535,0.39783 0.1813,0.38487 -0.0827,1.05031 -0.56954,1.56545 0.49727,0.6254 0.61349,1.11743 0.61349,1.75243 0,0.635 -0.1905,1.13947 -0.5715,1.51341 -0.37394,0.36689 -0.92074,0.55034 -1.64041,0.55034 -0.41628,0 -0.7867,-0.0811 -1.11125,-0.24342 l -0.56092,0.5715 c -0.16228,0.16228 -0.24342,0.32809 -0.24342,0.49742 0,0.23283 0.14817,0.34925 0.4445,0.34925 h 2.30717 c 0.51505,0 0.94191,0.13405 1.28058,0.40216 0.33867,0.26106 0.508,0.62089 0.508,1.0795 0,0.55739 -0.2293,0.98778 -0.68791,1.29117 -0.45156,0.31045 -1.09362,0.46567 -1.92617,0.46567 -0.8255,0 -1.48167,-0.127 -1.9685,-0.381 -0.47978,-0.24695 -0.71967,-0.64206 -0.71967,-1.18534 0,-0.19755 0.0494,-0.40569 0.14817,-0.62441 0.0988,-0.21873 0.22931,-0.39159 0.39158,-0.51859 -0.35983,-0.13405 -0.53975,-0.37394 -0.53975,-0.71966 0,-0.34573 0.1905,-0.70556 0.5715,-1.0795 l 0.508,-0.48684 c -0.40922,-0.39511 -0.61383,-0.93133 -0.61383,-1.60866 0,-0.68439 0.18697,-1.21356 0.56092,-1.5875 0.381,-0.37395 0.93133,-0.56092 1.651,-0.56092 z m 1.42875,2.20133 c 0,-0.49389 -0.13053,-0.88194 -0.39159,-1.16416 -0.254,-0.28928 -0.60678,-0.43392 -1.05833,-0.43392 -0.4445,0 -0.79022,0.13406 -1.03717,0.40217 -0.24694,0.26811 -0.37041,0.65263 -0.37041,1.15358 0,0.49389 0.13053,0.88547 0.39158,1.17475 0.26811,0.28928 0.62442,0.43392 1.06892,0.43392 0.4445,0 0.78669,-0.13758 1.02658,-0.41275 0.24695,-0.27517 0.37042,-0.6597 0.37042,-1.15359 z m -0.64559,3.94759 h -2.29658 c -0.254,0.30339 -0.381,0.62089 -0.381,0.9525 0,0.33867 0.17286,0.59619 0.51858,0.77258 0.34573,0.18345 0.79376,0.27517 1.34409,0.27517 1.25589,0 1.88383,-0.38806 1.88383,-1.16417 0,-0.27517 -0.0952,-0.48331 -0.28575,-0.62442 -0.1905,-0.14111 -0.45156,-0.21166 -0.78317,-0.21166 z"
         style="font-style:normal;font-variant:normal;font-weight:normal;font-stretch:normal;line-height:13.22916603px;font-family:'Fauna One';-inkscape-font-specification:'Fauna One';fill:#f18c98;fill-opacity:1;stroke-width:0.26458332"
         id="path4495"
         inkscape:connector-curvature="0"
         sodipodi:nodetypes="scccccccccccccccccscsccssscscscsccsccscsssscscscsssscsscss" />
      <path
         d="m 115.54558,152.39996 q -0.28575,0.81491 -0.64559,1.12183 -0.34925,0.3175 -0.9525,0.3175 -0.59266,0 -1.0795,-0.28575 l 0.23284,-0.61383 q 0.39158,0.22225 0.78316,0.22225 0.62442,0 0.86784,-0.66675 l 0.33866,-0.96309 -2.40241,-6.30766 h 0.84666 l 1.92617,5.18583 1.60867,-4.91067 q 0.0953,-0.27516 0.39158,-0.27516 h 0.84667 v 0.56091 l -0.51859,0.0847 z"
         style="font-style:normal;font-variant:normal;font-weight:normal;font-stretch:normal;line-height:13.22916603px;font-family:'Fauna One';-inkscape-font-specification:'Fauna One';fill:#483737;stroke-width:0.26458332"
         id="path4497"
         inkscape:connector-curvature="0" />
    </g>
    <g
       id="g4525">
      <g
         transform="translate(1.8406829,19.80184)"
         aria-label="piggy"
         style="font-style:normal;font-variant:normal;font-weight:normal;font-stretch:normal;font-size:10.58333302px;line-height:1.25;font-family:'Fauna One';-inkscape-font-specification:'Fauna One';letter-spacing:0px;word-spacing:0px;fill:#483737;fill-opacity:1;stroke:none;stroke-width:0.26458332"
         id="g4498">
        <path
           d="m 102.73082,148.67518 c 0.31044,0 0.63778,0.0379 0.99355,0.15968 0,0 0.23766,-0.14488 0.4082,-0.32354 0.36977,-0.37346 0.48181,-0.70873 0.0141,-0.82112 -0.17271,0 -0.37549,0.0345 -0.42474,0.25879 0.0143,0.21 0.24677,0.22711 0.45803,0.23595 0.5019,-0.0893 0.83095,-0.22237 1.11903,-0.3803 0.26215,-0.14834 0.36138,-0.2073 0.54816,-0.36572 0.23913,-0.18762 0.56937,-0.51089 0.56937,-0.51089 0,0 -0.11758,0.29261 -0.37085,0.66107 -0.14219,0.14424 -0.17037,0.18533 -0.40065,0.35804 -0.2418,0.1612 -0.32821,0.24749 -0.71969,0.40869 -0.41451,0.12666 -0.65966,0.27229 -1.17173,0.15253 -0.20047,-0.0562 -0.29462,-0.12083 -0.43279,-0.30506 -0.0738,-0.18143 -0.0739,-0.33429 0.0496,-0.54633 0.13817,-0.19574 0.2455,-0.36467 0.68304,-0.42224 0.29937,-0.023 0.64961,0.006 0.84535,0.39783 0.1813,0.38487 -0.0827,1.05031 -0.56954,1.56545 0.49727,0.6254 0.61349,1.11743 0.61349,1.75243 0,0.635 -0.1905,1.13947 -0.5715,1.51341 -0.37394,0.36689 -0.92074,0.55034 -1.64041,0.55034 -0.41628,0 -0.7867,-0.0811 -1.11125,-0.24342 -0.17416,-0.0827 -0.38439,-0.22253 -0.48684,-0.33867 -0.40922,-0.39511 -0.61383,-0.93133 -0.61383,-1.60866 0,-0.68439 0.18697,-1.21356 0.56092,-1.5875 0.381,-0.37395 0.93133,-0.56092 1.651,-0.56092 z"
           style="font-style:normal;font-variant:normal;font-weight:normal;font-stretch:normal;line-height:13.22916603px;font-family:'Fauna One';-inkscape-font-specification:'Fauna One';fill:#f18c98;fill-opacity:1;stroke-width:0.26458332"
           id="path4494"
           inkscape:connector-curvature="0"
           sodipodi:nodetypes="scccccccccccccccccscsccscss" />
      </g>
      <g
         id="g4506"
         style="font-style:normal;font-variant:normal;font-weight:normal;font-stretch:normal;font-size:10.58333302px;line-height:1.25;font-family:'Fauna One';-inkscape-font-specification:'Fauna One';letter-spacing:0px;word-spacing:0px;fill:#483737;fill-opacity:1;stroke:none;stroke-width:0.26458332"
         aria-label="piggy"
         transform="translate(1.8406829,19.80184)">
        <path
           sodipodi:nodetypes="ccsccccc"
           inkscape:connector-curvature="0"
           id="path4504"
           style="font-style:normal;font-variant:normal;font-weight:normal;font-stretch:normal;line-height:13.22916603px;font-family:'Fauna One';-inkscape-font-specification:'Fauna One';fill:#483737;fill-opacity:1;stroke-width:0.26458332"
           d="m 104.94275,150.95044 c 0,0.635 -0.1905,1.13947 -0.5715,1.51341 -0.37394,0.36689 -0.92074,0.55034 -1.64041,0.55034 -0.41628,0 -0.7867,-0.0811 -1.11125,-0.24342 -0.17416,-0.0827 -0.38439,-0.22253 -0.48684,-0.33867 -0.40922,-0.39511 -0.61383,-0.93133 -0.61383,-1.60866 0.70357,0.52257 1.37533,-0.84141 2.27011,0.0931 0.67972,0.46755 1.28513,-0.28908 2.15372,0.0339 z" />
      </g>
    </g>
  </g>
</svg>
